<?xml version="1.0" encoding="UTF-8" standalone="no"?>
<svg
   xmlns:dc="http://purl.org/dc/elements/1.1/"
   xmlns:cc="http://creativecommons.org/ns#"
   xmlns:rdf="http://www.w3.org/1999/02/22-rdf-syntax-ns#"
   xmlns:svg="http://www.w3.org/2000/svg"
   xmlns="http://www.w3.org/2000/svg"
   xmlns:sodipodi="http://sodipodi.sourceforge.net/DTD/sodipodi-0.dtd"
   xmlns:inkscape="http://www.inkscape.org/namespaces/inkscape"
   width="2018.02"
   height="302.19"
   viewBox="0 0 2018.02 302.19"
   version="1.1"
   id="svg38"
   sodipodi:docname="exycodelabs_light_color.svg"
   inkscape:version="0.92.4 (unknown)">
  <metadata
     id="metadata42">
    <rdf:RDF>
      <cc:Work
         rdf:about="">
        <dc:format>image/svg+xml</dc:format>
        <dc:type
           rdf:resource="http://purl.org/dc/dcmitype/StillImage" />
        <dc:title>gd_codelabs_lockup_horizontal_white</dc:title>
      </cc:Work>
    </rdf:RDF>
  </metadata>
  <sodipodi:namedview
     pagecolor="#ffffff"
     bordercolor="#666666"
     borderopacity="1"
     objecttolerance="10"
     gridtolerance="10"
     guidetolerance="10"
     inkscape:pageopacity="0"
     inkscape:pageshadow="2"
     inkscape:window-width="1920"
     inkscape:window-height="1052"
     id="namedview40"
     showgrid="false"
     inkscape:zoom="0.16947305"
     inkscape:cx="-852.64296"
     inkscape:cy="-320.95647"
     inkscape:window-x="0"
     inkscape:window-y="0"
     inkscape:window-maximized="1"
     inkscape:current-layer="g151" />
  <defs
     id="defs4">
    <style
       id="style2">
      .a {
        fill: #fff;
      }
    </style>
    <style
       id="style123">.a{fill:#8bc249;}.b{fill:#808285;}.c{fill:#231f20;}</style>
  </defs>
  <title
     id="title6">gd_codelabs_lockup_horizontal_white</title>
  <g
     inkscape:groupmode="layer"
     id="layer1"
     inkscape:label="Layer 1"
     style="display:none">
    <rect
       style="fill:#000000;stroke-width:0.75581485"
       id="rect45"
       width="2029.8214"
       height="324.53537"
       x="-3.0785277e-06"
       y="-4.6434507" />
  </g>
  <g
     id="g36"
     transform="translate(-76.708363,1.900643)">
    <g
       id="g24">
      <path
         class="a"
         d="m 823.82,285.47 a 109,109 0 0 1 -41.08,-41.4 q -14.93,-26.31 -14.93,-58.62 0,-32.31 14.93,-58.63 A 109.07,109.07 0 0 1 823.82,85.43 Q 850,70.35 882,70.35 q 24.62,0 45.08,9.39 a 105,105 0 0 1 35.55,26.62 l -18.78,18.15 Q 931.23,109.43 916.31,102.36 901.39,95.29 882,95.28 a 88.32,88.32 0 0 0 -44,11.23 83.58,83.58 0 0 0 -31.85,31.7 q -11.85,20.47 -11.85,47.24 0,26.77 11.85,47.24 a 83.49,83.49 0 0 0 31.85,31.69 88.23,88.23 0 0 0 44,11.24 q 40,0 68,-32.93 l 19.08,18.46 a 111.21,111.21 0 0 1 -37.85,28.78 q -22.47,10.62 -49.23,10.61 -32,0 -58.18,-15.07 z"
         transform="translate(-2.01,-34.11)"
         id="path8"
         inkscape:connector-curvature="0"
         style="fill:#ffffff" />
      <path
         class="a"
         d="m 1019.86,289.47 a 77.47,77.47 0 0 1 -28.77,-30.16 91.36,91.36 0 0 1 0,-84.32 77.41,77.41 0 0 1 28.77,-30.16 q 18.47,-11.09 41.55,-11.08 23.08,0.01 41.59,11.08 a 77.5,77.5 0 0 1 28.73,30.17 91.43,91.43 0 0 1 0,84.32 77.57,77.57 0 0 1 -28.73,30.15 q -18.46,11.07 -41.54,11.07 -23.08,0 -41.6,-11.07 z m 68.47,-19.85 a 53.48,53.48 0 0 0 20,-20.78 q 7.53,-13.53 7.54,-31.69 0.01,-18.16 -7.54,-31.7 a 53.45,53.45 0 0 0 -20,-20.77 52.74,52.74 0 0 0 -26.92,-7.24 53.6,53.6 0 0 0 -27.09,7.24 53,53 0 0 0 -20.15,20.77 q -7.54,13.55 -7.54,31.7 0,18.15 7.54,31.69 a 53.05,53.05 0 0 0 20.15,20.78 53.59,53.59 0 0 0 27.09,7.23 52.73,52.73 0 0 0 26.92,-7.23 z"
         transform="translate(-2.01,-34.11)"
         id="path10"
         inkscape:connector-curvature="0"
         style="fill:#ffffff" />
      <path
         class="a"
         d="m 1194.81,289.77 a 75.54,75.54 0 0 1 -26.93,-29.69 q -9.84,-18.93 -9.84,-42.93 0,-23.7 9.84,-42.78 a 75.25,75.25 0 0 1 26.93,-29.85 69.8,69.8 0 0 1 38,-10.77 q 18.15,0 32.31,8.15 14.16,8.15 21.54,20.16 h 1.23 l -1.23,-21.85 V 75.28 h 26.16 v 220.34 h -24.92 v -23.08 h -1.23 q -7.38,11.7 -21.54,19.85 -14.16,8.15 -32.31,8.15 a 69.8,69.8 0 0 1 -38.01,-10.77 z m 66.78,-20.31 a 53.88,53.88 0 0 0 19.08,-20.92 q 7.23,-13.54 7.23,-31.39 0,-17.85 -7.23,-31.39 a 53.91,53.91 0 0 0 -19.08,-20.93 48.11,48.11 0 0 0 -51.24,0 53.26,53.26 0 0 0 -19.23,21.08 q -7.23,13.69 -7.23,31.24 0,17.55 7.23,31.23 a 53.26,53.26 0 0 0 19.23,21.08 48.11,48.11 0 0 0 51.24,0 z"
         transform="translate(-2.01,-34.11)"
         id="path12"
         inkscape:connector-curvature="0"
         style="fill:#ffffff" />
      <path
         class="a"
         d="m 1373.46,289.77 a 74.7,74.7 0 0 1 -27.85,-29.69 q -10,-18.93 -10,-42.63 a 93.47,93.47 0 0 1 9.39,-41.85 76,76 0 0 1 26.62,-30.47 q 17.23,-11.37 40,-11.38 23.09,0 40,10.31 a 68.38,68.38 0 0 1 26,28.46 q 9.07,18.16 9.08,41.55 a 30.42,30.42 0 0 1 -0.93,8 h -124 q 0.93,17.85 8.62,30.16 a 50.15,50.15 0 0 0 19.54,18.46 53,53 0 0 0 24.77,6.16 q 30.16,0 46.47,-28.31 l 22.16,10.77 a 79.06,79.06 0 0 1 -27.54,30.16 q -17.38,11.07 -42,11.07 -22.49,0 -40.33,-10.77 z M 1459,200.53 a 51,51 0 0 0 -5.54,-19.7 q -4.92,-9.84 -15.54,-16.62 -10.62,-6.78 -26.62,-6.77 -18.46,0 -31.24,11.85 -12.78,11.85 -16.77,31.24 z"
         transform="translate(-2.01,-34.11)"
         id="path14"
         inkscape:connector-curvature="0"
         style="fill:#ffffff" />
      <path
         class="a"
         d="m 1511,75.28 h 26.15 V 295.62 H 1511 Z"
         transform="translate(-2.01,-34.11)"
         id="path16"
         inkscape:connector-curvature="0"
         style="fill:#ffffff" />
      <path
         class="a"
         d="m 1587.65,293.77 a 50.69,50.69 0 0 1 -20.93,-18.61 49.9,49.9 0 0 1 -7.39,-26.93 q 0,-24.93 18.78,-38.93 18.78,-14 47.39,-14 a 107.57,107.57 0 0 1 26.31,3.07 q 12.15,3.09 18.62,7.08 v -9.54 q 0,-17.53 -12.31,-28.16 -12.31,-10.63 -31.12,-10.61 a 52.45,52.45 0 0 0 -24.31,5.69 44.37,44.37 0 0 0 -17.54,15.85 l -19.7,-14.77 a 63,63 0 0 1 25.39,-22.16 79.71,79.71 0 0 1 35.85,-8 q 32,0 50.32,16.77 18.32,16.77 18.31,45.7 v 99.4 h -24.93 v -22.46 h -1.23 q -6.77,11.38 -20.31,19.38 a 58.72,58.72 0 0 1 -30.47,8 q -17.19,0 -30.73,-6.77 z m 57.85,-23.08 a 51.26,51.26 0 0 0 18.16,-18.15 47.92,47.92 0 0 0 6.77,-24.93 64.6,64.6 0 0 0 -18.16,-8 82.56,82.56 0 0 0 -22.77,-3.08 q -21.54,0 -32.47,8.92 a 28.46,28.46 0 0 0 -10.92,23.09 25.65,25.65 0 0 0 9.85,20.92 q 9.84,8 24.92,8 a 47.27,47.27 0 0 0 24.62,-6.77 z"
         transform="translate(-2.01,-34.11)"
         id="path18"
         inkscape:connector-curvature="0"
         style="fill:#ffffff" />
      <path
         class="a"
         d="m 1773.06,292.39 q -14.31,-8.14 -21.39,-19.85 h -1.23 v 23.08 h -24.93 V 75.28 h 26.16 v 64.93 l -1.23,21.85 h 1.23 q 7.08,-12 21.39,-20.16 a 63.86,63.86 0 0 1 32.16,-8.15 70.57,70.57 0 0 1 38.16,10.77 74.87,74.87 0 0 1 27.08,29.85 q 9.86,19.08 9.85,42.78 0,24 -9.85,42.93 a 75.15,75.15 0 0 1 -27.08,29.69 70.57,70.57 0 0 1 -38.16,10.77 63.86,63.86 0 0 1 -32.16,-8.15 z m 54.63,-22.93 a 53.26,53.26 0 0 0 19.23,-21.08 q 7.23,-13.68 7.23,-31.23 0,-17.55 -7.23,-31.24 a 53.26,53.26 0 0 0 -19.23,-21.08 47.85,47.85 0 0 0 -51.09,0 52.44,52.44 0 0 0 -19.08,20.93 q -7.08,13.55 -7.08,31.39 0,17.84 7.08,31.39 a 52.41,52.41 0 0 0 19.08,20.92 47.85,47.85 0 0 0 51.09,0 z"
         transform="translate(-2.01,-34.11)"
         id="path20"
         inkscape:connector-curvature="0"
         style="fill:#ffffff" />
      <path
         class="a"
         d="m 1915.7,288.7 a 64.66,64.66 0 0 1 -24,-30.32 l 23.39,-10.46 q 5.84,14.16 17.38,21.85 a 44.83,44.83 0 0 0 25.39,7.69 q 14.78,0 25.24,-6 10.46,-6 10.46,-17.08 0,-9.84 -8.31,-15.85 -8.31,-6.01 -26.16,-10.31 L 1940,223.3 q -18.77,-4.62 -30.77,-15.69 -12,-11.07 -12,-28.62 a 37.31,37.31 0 0 1 8.15,-23.85 52.12,52.12 0 0 1 21.7,-15.85 76.29,76.29 0 0 1 29.23,-5.54 q 20.63,0 36.78,8.92 16.15,8.92 22.91,24.93 l -22.78,10.46 q -10.45,-20.92 -37.23,-20.92 -12.93,0 -22.62,6 -9.69,6 -9.7,15.23 a 17,17 0 0 0 6.77,14 q 6.77,5.38 20.31,8.77 l 22.78,5.85 q 23.07,5.85 34.77,17.39 a 38,38 0 0 1 11.7,28.16 40.77,40.77 0 0 1 -8.31,25.39 q -8.31,10.92 -22.47,16.77 a 81.63,81.63 0 0 1 -31.39,5.84 q -25.2,0 -42.13,-11.84 z"
         transform="translate(-2.01,-34.11)"
         id="path22"
         inkscape:connector-curvature="0"
         style="fill:#ffffff" />
    </g>
  </g>
  <g
     id="g151"
     transform="matrix(9.5877893,0,0,9.6475819,562.1402,-212.72262)">
    <path
       id="path129"
       d="m -28.206487,45.961641 a 12.9,12.9 0 0 1 -1.450001,-10.55 14.32,14.32 0 0 1 6.940001,-8.4 14.73,14.73 0 0 1 10.51,-1.84 12,12 0 0 1 8.3499998,6 12.34,12.34 0 0 1 1.45,10.24 q -1.57,5 -7.19,8.29 l -0.8299998,0.42 -10.58,-18.29 a 9.0700002,9.0700002 0 0 0 -4.2,5.53 8.1899999,8.1899999 0 0 0 0.88,6.21 q 2.7,4.68 7.63,4 l 0.629999,4.8 a 12,12 0 0 1 -6.639999,-1.08 12.54,12.54 0 0 1 -5.5,-5.33 z m 18.7299998,-2.51 a 7.13,7.13 0 0 0 2.73,-4 7.5100001,7.5100001 0 0 0 -1.09,-6 7.21,7.21 0 0 0 -3.9300008,-3.31 8.9100001,8.9100001 0 0 0 -5.439999,-0.11 z"
       class="a"
       inkscape:connector-curvature="0"
       style="fill:#ffffff;stroke-width:1" />
  </g>
</svg>
